<?xml version="1.0" encoding="UTF-8"?>
<!DOCTYPE svg PUBLIC "-//W3C//DTD SVG 1.1//EN" "http://www.w3.org/Graphics/SVG/1.1/DTD/svg11.dtd">
<svg xmlns="http://www.w3.org/2000/svg" version="1.1" width="320px" height="320px" style="shape-rendering:geometricPrecision; text-rendering:geometricPrecision; image-rendering:optimizeQuality; fill-rule:evenodd; clip-rule:evenodd" xmlns:xlink="http://www.w3.org/1999/xlink">
<g><path style="opacity:0.721" fill="#050100" d="M 158.5,5.5 C 159.496,5.41423 160.329,5.74756 161,6.5C 172.303,24.7788 182.803,43.4455 192.5,62.5C 170.833,62.5 149.167,62.5 127.5,62.5C 127.755,59.9837 128.589,57.6504 130,55.5C 139.777,38.9413 149.277,22.2746 158.5,5.5 Z"/></g>
<g><path style="opacity:1" fill="#d02f00" d="M 184.5,55.5 C 176.528,56.8313 168.194,57.498 159.5,57.5C 150.993,57.4998 142.66,57.1664 134.5,56.5C 142.736,41.6972 151.236,27.0305 160,12.5C 168.179,26.8607 176.345,41.194 184.5,55.5 Z"/></g>
<g><path style="opacity:0.75" fill="#060100" d="M 267.5,46.5 C 268.5,46.5 269.5,46.5 270.5,46.5C 265.805,66.9468 260.638,87.2801 255,107.5C 254.612,108.428 253.945,109.095 253,109.5C 237.665,94.3317 222.498,78.9983 207.5,63.5C 227.606,57.8103 247.606,52.1436 267.5,46.5 Z"/></g>
<g><path style="opacity:0.763" fill="#100300" d="M 50.5,51.5 C 51.2739,50.8529 52.2739,50.5195 53.5,50.5C 70.8041,55.1012 88.1375,59.6012 105.5,64C 108.408,64.6888 111.075,65.8555 113.5,67.5C 98.8333,82.8333 83.8333,97.8333 68.5,112.5C 67.914,112.291 67.414,111.957 67,111.5C 61.785,91.2947 56.285,71.2947 50.5,51.5 Z"/></g>
<g><path style="opacity:1" fill="#cc2e00" d="M 263.5,51.5 C 264.497,51.4701 265.164,51.9701 265.5,53C 260.748,69.5142 256.081,86.0142 251.5,102.5C 239.014,90.5142 226.681,78.3475 214.5,66C 230.849,60.9989 247.182,56.1655 263.5,51.5 Z"/></g>
<g><path style="opacity:1" fill="#d02f00" d="M 56.5,55.5 C 73.2506,59.6836 89.9173,64.1836 106.5,69C 94.3333,81.1667 82.1667,93.3333 70,105.5C 65.1859,88.9353 60.6859,72.2687 56.5,55.5 Z"/></g>
<g><path style="opacity:1" fill="#8c1f00" d="M 184.5,55.5 C 185.267,56.172 185.934,57.0053 186.5,58C 168.824,58.833 151.157,58.6663 133.5,57.5C 133.624,56.8933 133.957,56.56 134.5,56.5C 142.66,57.1664 150.993,57.4998 159.5,57.5C 168.194,57.498 176.528,56.8313 184.5,55.5 Z"/></g>
<g><path style="opacity:0.754" fill="#0a0100" d="M 155.5,66.5 C 200.458,66.3776 231.292,87.0442 248,128.5C 260.518,174.297 247.352,210.464 208.5,237C 178.524,252.901 148.19,253.568 117.5,239C 81.5196,216.869 66.0196,184.702 71,142.5C 78.6372,107.534 99.1372,83.7009 132.5,71C 140.197,68.8933 147.863,67.3933 155.5,66.5 Z"/></g>
<g><path style="opacity:1" fill="#d22f00" d="M 150.5,70.5 C 194.949,68.84 226.116,88.1733 244,128.5C 254.692,165.234 246.525,197.067 219.5,224C 195.661,243.496 168.661,249.829 138.5,243C 93.6142,227.091 72.1142,195.258 74,147.5C 82.3464,104.654 107.846,78.9873 150.5,70.5 Z"/></g>
<g><path style="opacity:0.725" fill="#060100" d="M 256.5,124.5 C 260.362,125.428 264.029,126.928 267.5,129C 282.468,137.82 297.468,146.653 312.5,155.5C 313.521,156.002 313.688,156.668 313,157.5C 294.55,168.307 276.05,178.973 257.5,189.5C 256.5,167.844 256.167,146.177 256.5,124.5 Z"/></g>
<g><path style="opacity:0.76" fill="#060100" d="M 58.5,127.5 C 59.5,127.5 60.5,127.5 61.5,127.5C 61.833,149.177 61.4997,170.844 60.5,192.5C 41.7978,181.485 23.1311,170.485 4.5,159.5C 22.5632,148.807 40.5632,138.14 58.5,127.5 Z"/></g>
<g><path style="opacity:1" fill="#8e2000" d="M 262.5,131.5 C 261.167,148.167 261.167,164.833 262.5,181.5C 262.44,182.043 262.107,182.376 261.5,182.5C 260.167,165.167 260.167,147.833 261.5,130.5C 262.107,130.624 262.44,130.957 262.5,131.5 Z"/></g>
<g><path style="opacity:1" fill="#d02f00" d="M 262.5,131.5 C 277.303,139.736 291.97,148.236 306.5,157C 291.94,165.444 277.274,173.611 262.5,181.5C 261.167,164.833 261.167,148.167 262.5,131.5 Z"/></g>
<g><path style="opacity:1" fill="#d02f00" d="M 57.5,133.5 C 57.83,151.008 57.4967,168.341 56.5,185.5C 41.59,177.259 26.9233,168.592 12.5,159.5C 27.364,150.569 42.364,141.902 57.5,133.5 Z"/></g>
<g><path style="opacity:1" fill="#3f0e00" d="M 57.5,133.5 C 58.8273,151.005 58.8273,168.671 57.5,186.5C 56.8933,186.376 56.56,186.043 56.5,185.5C 57.4967,168.341 57.83,151.008 57.5,133.5 Z"/></g>
<g><path style="opacity:0.739" fill="#050000" d="M 255.5,205.5 C 256.75,205.577 257.583,206.244 258,207.5C 263.19,227.594 268.69,247.594 274.5,267.5C 273.833,267.833 273.167,268.167 272.5,268.5C 251.734,263.142 231.067,257.476 210.5,251.5C 225.521,236.146 240.521,220.813 255.5,205.5 Z"/></g>
<g><path style="opacity:0.723" fill="#060100" d="M 68.5,206.5 C 84.0812,220.579 99.2479,235.245 114,250.5C 114.483,251.448 114.649,252.448 114.5,253.5C 94.1426,258.673 73.8093,264.006 53.5,269.5C 52.8333,269.167 52.1667,268.833 51.5,268.5C 57.4809,247.909 63.1476,227.242 68.5,206.5 Z"/></g>
<g><path style="opacity:1" fill="#cd2e00" d="M 254.5,212.5 C 259.605,228.57 264.272,244.903 268.5,261.5C 268.167,262.167 267.833,262.833 267.5,263.5C 251.03,259.231 234.696,254.564 218.5,249.5C 230.521,237.146 242.521,224.813 254.5,212.5 Z"/></g>
<g><path style="opacity:1" fill="#cd2e00" d="M 70.5,213.5 C 83.1457,225.479 95.479,237.812 107.5,250.5C 91.1768,255.163 74.8434,259.829 58.5,264.5C 58.1667,263.833 57.8333,263.167 57.5,262.5C 61.9935,246.192 66.3268,229.858 70.5,213.5 Z"/></g>
<g><path style="opacity:0.773" fill="#060100" d="M 130.5,257.5 C 152.177,257.167 173.844,257.5 195.5,258.5C 184.467,277.037 173.634,295.704 163,314.5C 151.131,296.096 140.298,277.096 130.5,257.5 Z"/></g>
<g><path style="opacity:1" fill="#5b1400" d="M 188.5,262.5 C 171.5,261.167 154.5,261.167 137.5,262.5C 136.957,262.44 136.624,262.107 136.5,261.5C 154.167,260.167 171.833,260.167 189.5,261.5C 189.376,262.107 189.043,262.44 188.5,262.5 Z"/></g>
<g><path style="opacity:1" fill="#d02f00" d="M 188.5,262.5 C 180.227,277.279 171.727,291.946 163,306.5C 154.236,291.97 145.736,277.303 137.5,262.5C 154.5,261.167 171.5,261.167 188.5,262.5 Z"/></g>
</svg>
